<?xml version="1.0" encoding="UTF-8"?>
<svg id="Calque_1" data-name="Calque 1" xmlns="http://www.w3.org/2000/svg" xmlns:xlink="http://www.w3.org/1999/xlink" viewBox="0 0 222.1 191.72">
  <defs>
    <style>
      .cls-1 {
        fill: none;
      }

      .cls-2 {
        fill: #ff7fdc;
      }

      .cls-3 {
        fill: aqua;
      }

      .cls-4 {
        fill: #2b1c82;
      }
    </style>
    <clipPath id="clippath">
      <rect class="cls-1" x="3090.97" y="-994.52" width="3840" height="2160"/>
    </clipPath>
  </defs>
  <polygon class="cls-3" points="112.46 12.03 98.92 20.57 113.62 48.61 128.88 39.3 112.46 12.03"/>
  <polygon class="cls-2" points="161.19 65.6 154.66 82.52 189.32 97.98 196.76 83.53 161.19 65.6"/>
  <path class="cls-3" d="M54.78,134.02l27.89-8.62c-2.85-2.49-18.38-17.34-9.01-38.97,10.27-23.72,36.37-35.7,36.37-35.7l-12.27-22.25s-30.97,15.99-45.51,36.63c-14.56,20.66-14.93,45.56-10.51,60.04l-11.9,2.51,28.24,23.95,1.19-1.04,9.92-8.6-14.41-7.97ZM91.53,39.54l5.86,10.49c-4.79,2.68-9.27,5.95-13.39,9.78l-9.21-7.81c5.09-4.92,10.7-9.09,16.74-12.46ZM66.61,61l9.72,7.11c-4.5,5.61-8.08,11.76-10.63,18.08l-11.17-4.51c2.92-7.22,6.96-14.21,12.08-20.69ZM52.46,116.22c-1.59-6.15-2.18-12.64-1.85-19.21l12.14-.91c-.45,5.95-.03,11.77,1.34,17.18l-11.64,2.95Z"/>
  <path class="cls-4" d="M97.44,154.37l1.01-11.96c5.58.48,11.38-.07,17.18-1.47l1.08,12.13c-6.45,1.38-12.95,1.86-19.27,1.3ZM157.67,140.1l-9.04-7.67c-5.29,5.68-11.19,10.44-17.45,14.26l-6.27-10.28c5.21-3.17,10.13-7.14,14.55-11.77l-6.78-5.75c-20.59,21.8-43.33,10.84-46.09,9.39h-.02s-1.92,1.14-1.92,1.14c-.3.19-.61.38-.92.56l-8.18,4.91,13.1,7.41-13.15,6.12-13.79,6.29,22.85,19.38,2.51-9.71c41.26,9.03,70.61-24.27,70.61-24.27Z"/>
  <path class="cls-2" d="M180.99,99.08l-28.49-12.32c-7.05,16.92-17.96,30.38-17.96,30.38l24.79,21.02c11.83-14.81,21.67-39.08,21.67-39.08ZM147.95,114.04c3.11-4.69,5.6-9.64,7.46-14.81l11.3,4.07c-2.34,6.5-5.53,12.72-9.56,18.55l-9.21-7.81Z"/>
</svg>